<svg id="Flat" height="512" viewBox="0 0 512 512" width="512" xmlns="http://www.w3.org/2000/svg"><path d="m208 392h48v96h-48z" fill="#f0c6a4" transform="matrix(-1 0 0 -1 464 880)"/><path d="m32 392h48v96h-48z" fill="#f0c6a4"/><path d="m256 328v64h-32v96h-160v-96h-32v-64a96 96 0 0 1 96-96h32a96 96 0 0 1 96 96z" fill="#f7b030"/><path d="m112 224h64v56h-64z" fill="#f0c6a4"/><g fill="#e37e22"><circle cx="160" cy="344" r="8"/><circle cx="160" cy="392" r="8"/><circle cx="160" cy="440" r="8"/></g><path d="m136 280h16v208h-16z" fill="#eba72e"/><path d="m112.77 232s-6.708 48 31.23 48a26.574 26.574 0 0 1 -24.926 16c-44.585 0-56.633-64-6.304-64z" fill="#e37e22"/><path d="m175.23 232s6.708 48-31.23 48a26.574 26.574 0 0 0 24.926 16c44.585 0 56.633-64 6.304-64z" fill="#e37e22"/><circle cx="224" cy="64" fill="#734b39" r="40"/><path d="m248 136c0-61.856-48-112-104-112s-104 50.144-104 112v24h208z" fill="#8c5237"/><path d="m232 136h-24v24a24 24 0 1 0 24-24z" fill="#f0c6a4"/><path d="m56 136a24 24 0 1 0 24 24v-24z" fill="#f0c6a4"/><path d="m224 352a8 8 0 0 0 -8 8v32h16v-32a8 8 0 0 0 -8-8z" fill="#eba72e"/><path d="m64 352a8 8 0 0 0 -8 8v32h16v-32a8 8 0 0 0 -8-8z" fill="#eba72e"/><path d="m224 136v32a80 80 0 0 1 -160 0v-32c25.63-1.07 104-7.85 104-48 0 0 7.22 43.7 56 48z" fill="#f7cca9"/><circle cx="112" cy="168" fill="#d49073" r="8"/><circle cx="176" cy="168" fill="#d49073" r="8"/><path d="m144 216c-18.772 0-28.6-9.285-29.657-10.343a8 8 0 0 1 11.314-11.314c.057.057 6.2 5.657 18.343 5.657s18.287-5.6 18.343-5.657a8 8 0 0 1 11.314 11.314c-1.057 1.058-10.885 10.343-29.657 10.343z" fill="#d49073"/><path d="m384 248h96a0 0 0 0 1 0 0v32a0 0 0 0 1 0 0h-96a16 16 0 0 1 -16-16 16 16 0 0 1 16-16z" fill="#e37e22" transform="matrix(-1 0 0 -1 848 528)"/><path d="m272 304v-24h-24a24 24 0 1 0 24 24z" fill="#f0c6a4"/><path d="m424 280h-24v24a24 24 0 1 0 24-24z" fill="#f0c6a4"/><path d="m448 464v24h-224v-24a96 96 0 0 1 96-96h32a96 96 0 0 1 96 96z" fill="#2d85cc"/><circle cx="336" cy="384" fill="#f0c6a4" r="40"/><rect fill="#f7cca9" height="192" rx="80" width="160" x="256" y="200"/><circle cx="304" cy="312" fill="#d49073" r="8"/><circle cx="368" cy="312" fill="#d49073" r="8"/><path d="m336 360c-18.772 0-28.6-9.285-29.657-10.343a8 8 0 0 1 11.314-11.314c.057.057 6.2 5.657 18.343 5.657s18.287-5.6 18.343-5.657a8 8 0 0 1 11.314 11.314c-1.057 1.058-10.885 10.343-29.657 10.343z" fill="#d49073"/><path d="m336 176a104 104 0 0 0 -104 104h24s8-24 32-24h96c24 0 32 24 32 24h24a104 104 0 0 0 -104-104z" fill="#f78a25"/><path d="m416 464v24h-16v-24a8 8 0 0 1 16 0z" fill="#2978b8"/><path d="m272 464v24h-16v-24a8 8 0 0 1 16 0z" fill="#2978b8"/><path d="m336 224a24 24 0 0 1 24 24v8a0 0 0 0 1 0 0h-48a0 0 0 0 1 0 0v-8a24 24 0 0 1 24-24z" fill="#f7b030"/><path d="m368 256h-16v-8a16 16 0 0 0 -32 0v8h-16v-8a32 32 0 0 1 64 0z" fill="#e37e22"/><path d="m256 280s8-24 32-24h96c24 0 32 24 32 24s-8 8-32 8a113.4 113.4 0 0 0 -17.231-32s0 24-30.769 32c-30.769-8-30.769-32-30.769-32a113.4 113.4 0 0 0 -17.231 32c-24 0-32-8-32-8z" fill="#f7b030"/><path d="m424 280h-16.68c-2.47-5.09-9.39-16-23.32-16h-96c-13.91 0-20.84 10.88-23.32 16h-16.68a7.973 7.973 0 0 1 .41-2.53c.4-1.2 10.16-29.47 39.59-29.47h96c29.43 0 39.19 28.27 39.59 29.47a7.973 7.973 0 0 1 .41 2.53z" fill="#e37e22"/></svg>